<svg width="459" height="66" viewBox="0 0 459 66" fill="none" xmlns="http://www.w3.org/2000/svg">
<path d="M18.4699 0.909996C27.8299 0.909996 35 2.59 39.9799 5.95C44.9599 9.25 47.45 14.41 47.45 21.43C47.45 25.81 46.43 29.38 44.3899 32.14C42.41 34.84 39.5299 36.97 35.75 38.53C37.0099 40.09 38.3299 41.89 39.7099 43.93C41.09 45.91 42.4399 48.01 43.7599 50.23C45.1399 52.39 46.46 54.67 47.72 57.07C48.9799 59.41 50.1499 61.72 51.2299 64H35.4799C34.34 61.96 33.1699 59.89 31.9699 57.79C30.83 55.69 29.63 53.65 28.37 51.67C27.17 49.69 25.97 47.83 24.77 46.09C23.57 44.29 22.37 42.67 21.17 41.23H14.24V64H0.199951V2.53C3.25995 1.93 6.40995 1.51 9.64995 1.27C12.95 1.03 15.8899 0.909996 18.4699 0.909996ZM19.28 12.88C18.26 12.88 17.33 12.91 16.49 12.97C15.71 13.03 14.96 13.09 14.24 13.15V30.07H18.2C23.48 30.07 27.26 29.41 29.54 28.09C31.82 26.77 32.9599 24.52 32.9599 21.34C32.9599 18.28 31.79 16.12 29.45 14.86C27.17 13.54 23.78 12.88 19.28 12.88ZM60.2293 64V1.63H102.349V13.42H74.2692V25.66H99.1992V37.18H74.2692V52.21H104.419V64H60.2293Z" fill="#009CFF"/>
<path d="M188.99 32.77C188.99 35.83 189.35 38.59 190.07 41.05C190.85 43.51 191.93 45.64 193.31 47.44C194.75 49.18 196.49 50.53 198.53 51.49C200.57 52.45 202.91 52.93 205.55 52.93C208.13 52.93 210.44 52.45 212.48 51.49C214.58 50.53 216.32 49.18 217.7 47.44C219.14 45.64 220.22 43.51 220.94 41.05C221.72 38.59 222.11 35.83 222.11 32.77C222.11 29.71 221.72 26.95 220.94 24.49C220.22 21.97 219.14 19.84 217.7 18.1C216.32 16.3 214.58 14.92 212.48 13.96C210.44 13 208.13 12.52 205.55 12.52C202.91 12.52 200.57 13.03 198.53 14.05C196.49 15.01 194.75 16.39 193.31 18.19C191.93 19.93 190.85 22.06 190.07 24.58C189.35 27.04 188.99 29.77 188.99 32.77ZM236.6 32.77C236.6 38.11 235.79 42.82 234.17 46.9C232.61 50.92 230.45 54.31 227.69 57.07C224.93 59.77 221.63 61.81 217.79 63.19C214.01 64.57 209.93 65.26 205.55 65.26C201.29 65.26 197.27 64.57 193.49 63.19C189.71 61.81 186.41 59.77 183.59 57.07C180.77 54.31 178.55 50.92 176.93 46.9C175.31 42.82 174.5 38.11 174.5 32.77C174.5 27.43 175.34 22.75 177.02 18.73C178.7 14.65 180.95 11.23 183.77 8.47C186.65 5.71 189.95 3.64 193.67 2.26C197.45 0.879995 201.41 0.189995 205.55 0.189995C209.81 0.189995 213.83 0.879995 217.61 2.26C221.39 3.64 224.69 5.71 227.51 8.47C230.33 11.23 232.55 14.65 234.17 18.73C235.79 22.75 236.6 27.43 236.6 32.77ZM289.974 51.94V64H248.304V1.63H262.344V51.94H289.974ZM299.016 64V1.63H341.136V13.42H313.056V25.66H337.986V37.18H313.056V52.21H343.206V64H299.016ZM399.856 1.63V13.6H381.046V64H367.006V13.6H348.196V1.63H399.856ZM443.257 64C442.597 61.84 441.847 59.62 441.007 57.34C440.227 55.06 439.447 52.78 438.667 50.5H414.367C413.587 52.78 412.777 55.06 411.937 57.34C411.157 59.62 410.437 61.84 409.777 64H395.197C397.537 57.28 399.757 51.07 401.857 45.37C403.957 39.67 405.997 34.3 407.977 29.26C410.017 24.22 411.997 19.45 413.917 14.95C415.897 10.39 417.937 5.95 420.037 1.63H433.447C435.487 5.95 437.497 10.39 439.477 14.95C441.457 19.45 443.437 24.22 445.417 29.26C447.457 34.3 449.527 39.67 451.627 45.37C453.727 51.07 455.947 57.28 458.287 64H443.257ZM426.427 15.76C426.127 16.66 425.677 17.89 425.077 19.45C424.477 21.01 423.787 22.81 423.007 24.85C422.227 26.89 421.357 29.14 420.397 31.6C419.497 34.06 418.567 36.64 417.607 39.34H435.337C434.377 36.64 433.447 34.06 432.547 31.6C431.647 29.14 430.777 26.89 429.937 24.85C429.157 22.81 428.467 21.01 427.867 19.45C427.267 17.89 426.787 16.66 426.427 15.76Z" fill="#7ECC2E"/>
<path d="M128.604 2.6909L122.166 15.3984C121.751 16.2189 122.024 17.2447 122.782 17.706L132.863 23.8436C133.631 24.3112 134.608 24.0237 135.044 23.2011L147.366 0.00149536H132.824C131.063 0.00149536 129.444 1.03353 128.604 2.6909Z" fill="#009CFF"/>
<path d="M147.366 0L135.045 23.1998C134.607 24.0223 133.631 24.3106 132.864 23.8433L130.232 22.2418C130.874 22.3525 131.541 22.0367 131.881 21.3961L143.247 0H147.366Z" fill="#009CFF"/>
<path d="M160.848 12.3048L156.408 2.83546C155.593 1.09811 153.933 0.00149536 152.118 0.00149536H139.28L149.137 17.9155C149.105 17.9311 149.072 17.9466 149.04 17.9622C148.42 18.2612 148.445 19.2139 149.08 19.4751L157.592 22.9765C157.987 23.1387 158.429 22.9278 158.581 22.5054L161.862 13.3525C162.104 12.6755 161.467 12.0222 160.848 12.3048Z" fill="#009CFF"/>
<path d="M161.862 13.3512L158.58 22.5039C158.429 22.9275 157.986 23.1387 157.592 22.9756L155.017 21.9157L158.087 13.3512C158.261 12.8655 157.983 12.3925 157.583 12.2684C157.202 12.1501 156.877 11.8829 156.699 11.5033L152.633 2.83453C151.819 1.09775 150.159 0 148.344 0H152.119C153.933 0 155.593 1.09775 156.408 2.83453L160.848 12.3046C161.468 12.0221 162.104 12.6743 161.862 13.3512Z" fill="#009CFF"/>
<path d="M152.271 48.8135C152.151 48.2879 151.518 48.0626 151.132 48.4765L144.479 55.6027C144.213 55.887 144.213 56.3479 144.479 56.632L151.157 63.7856C151.541 64.1967 152.168 63.9773 152.294 63.4605H162.115C163.923 63.4605 165.578 62.3722 166.396 60.645L172 48.8134H152.271V48.8135Z" fill="#009CFF"/>
<path d="M160.561 48.8138L163.746 53.9753C164.466 55.1422 164.545 56.6333 163.955 57.8806L162.645 60.6453C161.828 62.3719 160.173 63.4609 158.365 63.4609H162.115C163.922 63.4609 165.578 62.3719 166.396 60.6453L172 48.814H160.561V48.8138Z" fill="#009CFF"/>
<path d="M138.867 62.1001V49.5063C138.867 48.5597 138.151 47.7922 137.267 47.7922H110.909L117.692 61.1317C118.533 62.7851 120.15 63.814 121.908 63.814H137.267C138.151 63.8142 138.867 63.0468 138.867 62.1001Z" fill="#009CFF"/>
<path d="M122.088 47.7946L116.234 58.2663L110.909 47.7946H122.088Z" fill="#009CFF"/>
<path d="M138.868 49.5068V62.101C138.868 63.0473 138.151 63.8145 137.268 63.8145H133.07C133.953 63.8145 134.669 63.0473 134.669 62.101V49.5068C134.669 48.5605 133.953 47.7933 133.07 47.7933H137.268C138.151 47.7931 138.868 48.5605 138.868 49.5068Z" fill="#009CFF"/>
<path d="M125.991 36.6645L124.807 27.1229C124.749 26.6515 124.345 26.3202 123.905 26.3828L114.963 27.6555C114.289 27.7514 114.038 28.6288 114.5 29.1169L108.856 37.8298C107.822 39.4272 107.717 41.5131 108.585 43.2205L114.726 55.2973L124.697 37.4559C124.701 37.4587 124.704 37.4617 124.708 37.4645C125.277 37.9272 126.085 37.4232 125.991 36.6645Z" fill="#009CFF"/>
<path d="M124.708 37.464C124.705 37.461 124.701 37.4582 124.698 37.4552L114.726 55.2962L112.676 51.2636L120.792 36.7396L121.017 36.3367C121.14 36.1166 121.38 36.0215 121.616 36.0703C121.617 36.0706 121.618 36.0708 121.619 36.0711C122.12 36.1666 122.633 35.72 122.556 35.1071L121.516 26.7217L123.904 26.3825C124.345 26.3199 124.75 26.6519 124.808 27.122L125.992 36.6649C126.086 37.4232 125.277 37.9268 124.708 37.464Z" fill="#009CFF"/>
</svg>
