<svg width="708" height="571" viewBox="0 0 708 571" fill="none" xmlns="http://www.w3.org/2000/svg">
<path d="M550.5 474C570.658 474 587 440.869 587 400C587 359.131 570.658 326 550.5 326C530.342 326 514 359.131 514 400C514 440.869 530.342 474 550.5 474Z" fill="#3F3D56"/>
<path d="M547.035 521C562.628 434.274 547.192 347.862 547.034 347L544.001 347.476C544.158 348.334 559.505 434.292 544 520.532L547.035 521Z" fill="#2FB86E"/>
<path d="M518.569 384.263L517.221 386.776L549.918 404.222L551.265 401.708L518.569 384.263Z" fill="#2FB86E"/>
<path d="M584.426 393.002L551.733 410.458L553.081 412.971L585.774 395.515L584.426 393.002Z" fill="#2FB86E"/>
<path d="M637.5 428C676.436 428 708 363.529 708 284C708 204.471 676.436 140 637.5 140C598.564 140 567 204.471 567 284C567 363.529 598.564 428 637.5 428Z" fill="#E6E6E6"/>
<path d="M629.736 519C657.192 349.534 630.013 180.686 629.735 179L627.001 179.476C627.278 181.158 654.377 349.552 627 518.532L629.736 519Z" fill="#2FB86E"/>
<path d="M574.371 253.861L573.024 256.374L636.976 290.497L638.324 287.984L574.371 253.861Z" fill="#2FB86E"/>
<path d="M704.468 270.954L640.526 305.095L641.874 307.608L705.817 273.468L704.468 270.954Z" fill="#2FB86E"/>
<path d="M637.5 428C676.436 428 708 363.529 708 284C708 204.471 676.436 140 637.5 140C598.564 140 567 204.471 567 284C567 363.529 598.564 428 637.5 428Z" fill="#E6E6E6"/>
<path d="M629.736 519C657.192 349.534 630.013 180.686 629.735 179L627.001 179.476C627.278 181.158 654.377 349.552 627 518.532L629.736 519Z" fill="#2FB86E"/>
<path d="M574.371 253.861L573.024 256.374L636.976 290.497L638.324 287.984L574.371 253.861Z" fill="#2FB86E"/>
<path d="M704.468 270.954L640.526 305.095L641.874 307.608L705.817 273.468L704.468 270.954Z" fill="#2FB86E"/>
<path d="M470 394C523.572 394 567 305.8 567 197C567 88.1999 523.572 0 470 0C416.428 0 373 88.1999 373 197C373 305.8 416.428 394 470 394Z" fill="#E6E6E6"/>
<path d="M458.804 519C497.3 287.23 459.193 56.3052 458.803 54L456.001 54.4764C456.389 56.7774 494.415 287.248 456 518.532L458.804 519Z" fill="#2FB86E"/>
<path d="M383.45 156.726L382.102 159.239L469.616 205.934L470.963 203.42L383.45 156.726Z" fill="#2FB86E"/>
<path d="M561.974 180.117L474.473 226.835L475.822 229.348L563.323 182.63L561.974 180.117Z" fill="#2FB86E"/>
<path d="M678.706 521H0V519H679L678.706 521Z" fill="#3F3D56"/>
<path d="M116.302 502.595H99.8324C91.2175 502.595 83.5217 503.211 78.4416 506.511C76.0526 502.116 72.5392 498.45 68.269 495.897C63.9988 493.345 59.1286 491.999 54.1676 492H37.6983C34.0609 492 30.4591 492.724 27.0986 494.131C23.7381 495.539 20.6847 497.601 18.1126 500.201C15.5406 502.801 13.5004 505.888 12.1084 509.285C10.7164 512.682 10 516.323 10 520V520H144V520C144 504.536 131.599 502.595 116.302 502.595Z" fill="#3F3D56"/>
<path d="M564 521H634C633.646 507.642 623.865 505 607.194 505H590.806C574.135 505 564.354 507.642 564 521Z" fill="#3F3D56"/>
<path d="M148.906 325.861L158.378 330.234L151.802 344.406C151.221 345.659 150.164 346.63 148.865 347.106C147.566 347.582 146.131 347.524 144.875 346.944C143.619 346.364 142.645 345.31 142.168 344.014C141.691 342.718 141.749 341.286 142.331 340.033L148.906 325.861Z" fill="#FFB9B9"/>
<path d="M242 128H242C252.078 128 261.744 131.98 268.87 139.065C275.996 146.15 280 155.758 280 165.778V208H204V165.778C204 155.758 208.004 146.15 215.13 139.065C222.256 131.98 231.922 128 242 128Z" fill="#2F2E41"/>
<path d="M213.356 527L205.044 525.522L199 493L216 493.364L213.356 527Z" fill="#FFB9B9"/>
<path d="M304 546.129L295.525 550L282 511.386L296.486 509L304 546.129Z" fill="#FFB9B9"/>
<path d="M300 510.88L278.102 512L218.348 367.551L216.718 497.637L195.708 494.919C180.895 413.964 168.638 342.049 187.914 297L253.236 302.198L300 510.88Z" fill="#2F2E41"/>
<path d="M200.371 549.989L192.038 549.525C191.672 549.504 191.317 549.388 191.007 549.187C190.697 548.986 190.442 548.706 190.266 548.375C190.089 548.043 189.998 547.671 190 547.293C190.002 546.915 190.098 546.544 190.278 546.215L202.962 523L214.1 523.957L215.819 532.234C216.139 533.772 216.033 535.372 215.514 536.85C214.994 538.329 214.083 539.627 212.883 540.597L207.421 545.012C206.94 546.526 205.989 547.834 204.715 548.734C203.44 549.634 201.914 550.075 200.371 549.989Z" fill="#2F2E41"/>
<path d="M316.047 568.263L308.924 570.835C308.449 571.006 307.941 571.045 307.448 570.948C306.955 570.85 306.494 570.62 306.112 570.279L293.713 559.238C292.566 558.217 291.731 556.866 291.309 555.351C290.887 553.836 290.898 552.224 291.34 550.715L292.897 545.4L304.702 543L317.533 563.733C317.772 564.12 317.925 564.56 317.978 565.018C318.032 565.477 317.986 565.942 317.842 566.379C317.699 566.815 317.463 567.212 317.152 567.539C316.841 567.865 316.463 568.113 316.047 568.263Z" fill="#2F2E41"/>
<path d="M236.5 187C250.583 187 262 175.807 262 162C262 148.193 250.583 137 236.5 137C222.417 137 211 148.193 211 162C211 175.807 222.417 187 236.5 187Z" fill="#FFB9B9"/>
<path d="M262 199.75L232 205L229 181L252.25 178L262 199.75Z" fill="#FFB9B9"/>
<path d="M262.009 310L185 302.564C188.776 261.701 201.432 225.662 227.617 196.974L265 194L262.009 310Z" fill="#3F3D56"/>
<path d="M159.68 333L144 327.784L171.059 273.187L211.573 207.432L228 197L191.655 278.286L159.68 333Z" fill="#3F3D56"/>
<path d="M253.919 154.077L207 163L214.568 139.949L241.811 134L263 141.436L253.919 154.077Z" fill="#2F2E41"/>
<path d="M158 341C196.66 341 228 309.884 228 271.5C228 233.116 196.66 202 158 202C119.34 202 88 233.116 88 271.5C88 309.884 119.34 341 158 341Z" fill="#2FB86E"/>
<path d="M239 351L196.5 339.981L154 328.962L184.875 297.981L215.751 267L227.375 309L239 351Z" fill="#2FB86E"/>
<path d="M158 296C171.807 296 183 284.807 183 271C183 257.193 171.807 246 158 246C144.193 246 133 257.193 133 271C133 284.807 144.193 296 158 296Z" fill="white"/>
<path d="M232.4 342.965L241.872 347.338L235.296 361.51C234.715 362.763 233.659 363.734 232.359 364.21C231.06 364.686 229.625 364.628 228.369 364.048C227.113 363.468 226.139 362.414 225.662 361.118C225.185 359.822 225.244 358.39 225.825 357.137L232.4 342.965Z" fill="#FFB9B9"/>
<path d="M242.423 352L229 343.836L236.039 296.156L265.168 198L270.701 200.105C276.157 202.181 280.656 206.182 283.34 211.346C286.023 216.509 286.705 222.475 285.255 228.107L266.377 301.413L242.423 352Z" fill="#3F3D56"/>
</svg>
