<svg width="1092" height="820" viewBox="0 0 1092 820" fill="none" xmlns="http://www.w3.org/2000/svg">
<path opacity="0.5" fill-rule="evenodd" clip-rule="evenodd" d="M1518.62 933H1.02682C-18.188 708.207 236.933 566.555 375.54 489.596C393.546 479.599 409.586 470.693 422.802 462.839C480.734 428.411 523.691 353.229 569.378 273.271C653.548 125.961 746.983 -37.563 960.385 7.66313C1148.01 47.529 1429.99 217.156 1536 470.921V892.385C1530.74 905.818 1524.95 919.357 1518.62 933Z" fill="url(#paint0_linear)"/>
<path d="M890.5 700C910.658 700 927 666.869 927 626C927 585.131 910.658 552 890.5 552C870.342 552 854 585.131 854 626C854 666.869 870.342 700 890.5 700Z" fill="#3F3D56"/>
<path d="M887.035 747C902.628 660.274 887.192 573.862 887.034 573L884.001 573.476C884.158 574.334 899.505 660.292 884 746.532L887.035 747Z" fill="#2FB86E"/>
<path d="M858.569 610.263L857.221 612.776L889.918 630.222L891.265 627.708L858.569 610.263Z" fill="#2FB86E"/>
<path d="M924.426 619.002L891.733 636.458L893.081 638.971L925.774 621.515L924.426 619.002Z" fill="#2FB86E"/>
<path d="M977.5 654C1016.44 654 1048 589.529 1048 510C1048 430.471 1016.44 366 977.5 366C938.564 366 907 430.471 907 510C907 589.529 938.564 654 977.5 654Z" fill="#E6E6E6"/>
<path d="M969.736 745C997.192 575.534 970.013 406.686 969.735 405L967.001 405.476C967.278 407.158 994.377 575.552 967 744.532L969.736 745Z" fill="#2FB86E"/>
<path d="M914.371 479.861L913.024 482.374L976.976 516.497L978.324 513.984L914.371 479.861Z" fill="#2FB86E"/>
<path d="M1044.47 496.954L980.526 531.095L981.874 533.608L1045.82 499.468L1044.47 496.954Z" fill="#2FB86E"/>
<path d="M977.5 654C1016.44 654 1048 589.529 1048 510C1048 430.471 1016.44 366 977.5 366C938.564 366 907 430.471 907 510C907 589.529 938.564 654 977.5 654Z" fill="#E6E6E6"/>
<path d="M969.736 745C997.192 575.534 970.013 406.686 969.735 405L967.001 405.476C967.278 407.158 994.377 575.552 967 744.532L969.736 745Z" fill="#2FB86E"/>
<path d="M914.371 479.861L913.024 482.374L976.976 516.497L978.324 513.984L914.371 479.861Z" fill="#2FB86E"/>
<path d="M1044.47 496.954L980.526 531.095L981.874 533.608L1045.82 499.468L1044.47 496.954Z" fill="#2FB86E"/>
<path d="M810 620C863.572 620 907 531.8 907 423C907 314.2 863.572 226 810 226C756.428 226 713 314.2 713 423C713 531.8 756.428 620 810 620Z" fill="#E6E6E6"/>
<path d="M798.804 745C837.3 513.23 799.193 282.305 798.803 280L796.001 280.476C796.389 282.777 834.415 513.248 796 744.532L798.804 745Z" fill="#2FB86E"/>
<path d="M723.45 382.726L722.102 385.239L809.616 431.934L810.963 429.42L723.45 382.726Z" fill="#2FB86E"/>
<path d="M901.974 406.117L814.473 452.835L815.822 455.348L903.323 408.63L901.974 406.117Z" fill="#2FB86E"/>
<path d="M1018.71 747H340V745H1019L1018.71 747Z" fill="#3F3D56"/>
<path d="M456.302 728.595H439.832C431.218 728.595 423.522 729.211 418.442 732.511C416.053 728.116 412.539 724.45 408.269 721.897C403.999 719.345 399.129 717.999 394.168 718H377.698C374.061 718 370.459 718.724 367.099 720.131C363.738 721.539 360.685 723.601 358.113 726.201C355.541 728.801 353.5 731.888 352.108 735.285C350.716 738.682 350 742.323 350 746V746H484V746C484 730.536 471.599 728.595 456.302 728.595Z" fill="#3F3D56"/>
<path d="M904 747H974C973.646 733.642 963.865 731 947.194 731H930.806C914.135 731 904.354 733.642 904 747Z" fill="#3F3D56"/>
<path d="M488.906 551.861L498.378 556.234L491.802 570.406C491.221 571.659 490.164 572.63 488.865 573.106C487.566 573.582 486.131 573.524 484.875 572.944C483.619 572.364 482.645 571.31 482.168 570.014C481.691 568.718 481.749 567.286 482.331 566.033L488.906 551.861Z" fill="#FFB9B9"/>
<path d="M582 354H582C592.078 354 601.744 357.98 608.87 365.065C615.996 372.15 620 381.758 620 391.778V434H544V391.778C544 381.758 548.004 372.15 555.13 365.065C562.256 357.98 571.922 354 582 354Z" fill="#2F2E41"/>
<path d="M553.356 753L545.044 751.522L539 719L556 719.364L553.356 753Z" fill="#FFB9B9"/>
<path d="M644 772.129L635.525 776L622 737.386L636.486 735L644 772.129Z" fill="#FFB9B9"/>
<path d="M640 736.88L618.102 738L558.348 593.551L556.718 723.637L535.708 720.919C520.895 639.964 508.638 568.049 527.914 523L593.236 528.198L640 736.88Z" fill="#2F2E41"/>
<path d="M540.371 775.989L532.038 775.525C531.672 775.504 531.317 775.388 531.007 775.187C530.697 774.986 530.442 774.706 530.266 774.375C530.089 774.043 529.998 773.671 530 773.293C530.002 772.915 530.098 772.544 530.278 772.215L542.962 749L554.1 749.957L555.819 758.234C556.139 759.772 556.033 761.372 555.514 762.85C554.994 764.329 554.083 765.627 552.883 766.597L547.421 771.012C546.94 772.526 545.989 773.834 544.715 774.734C543.44 775.634 541.914 776.075 540.371 775.989Z" fill="#2F2E41"/>
<path d="M656.047 794.263L648.924 796.835C648.449 797.006 647.941 797.045 647.448 796.948C646.955 796.85 646.494 796.62 646.112 796.279L633.713 785.238C632.566 784.217 631.731 782.866 631.309 781.351C630.887 779.836 630.898 778.224 631.34 776.715L632.897 771.4L644.702 769L657.533 789.733C657.772 790.12 657.925 790.56 657.978 791.018C658.032 791.477 657.986 791.942 657.842 792.379C657.699 792.815 657.463 793.212 657.152 793.539C656.841 793.865 656.463 794.113 656.047 794.263Z" fill="#2F2E41"/>
<path d="M576.5 413C590.583 413 602 401.807 602 388C602 374.193 590.583 363 576.5 363C562.417 363 551 374.193 551 388C551 401.807 562.417 413 576.5 413Z" fill="#FFB9B9"/>
<path d="M602 425.75L572 431L569 407L592.25 404L602 425.75Z" fill="#FFB9B9"/>
<path d="M602.009 536L525 528.564C528.776 487.701 541.432 451.662 567.617 422.974L605 420L602.009 536Z" fill="#3F3D56"/>
<path d="M499.68 559L484 553.784L511.059 499.187L551.573 433.432L568 423L531.655 504.286L499.68 559Z" fill="#3F3D56"/>
<path d="M593.919 380.077L547 389L554.568 365.949L581.811 360L603 367.436L593.919 380.077Z" fill="#2F2E41"/>
<path d="M498 567C536.66 567 568 535.884 568 497.5C568 459.116 536.66 428 498 428C459.34 428 428 459.116 428 497.5C428 535.884 459.34 567 498 567Z" fill="#2FB86E"/>
<path d="M579 577L536.5 565.981L494 554.962L524.875 523.981L555.751 493L567.375 535L579 577Z" fill="#2FB86E"/>
<path d="M498 522C511.807 522 523 510.807 523 497C523 483.193 511.807 472 498 472C484.193 472 473 483.193 473 497C473 510.807 484.193 522 498 522Z" fill="white"/>
<path d="M572.4 568.965L581.872 573.338L575.296 587.51C574.715 588.763 573.659 589.734 572.359 590.21C571.06 590.686 569.625 590.628 568.369 590.048C567.113 589.468 566.139 588.414 565.662 587.118C565.185 585.822 565.244 584.39 565.825 583.137L572.4 568.965Z" fill="#FFB9B9"/>
<path d="M582.423 578L569 569.836L576.039 522.156L605.168 424L610.701 426.105C616.157 428.181 620.656 432.182 623.34 437.346C626.023 442.509 626.705 448.475 625.255 454.107L606.377 527.413L582.423 578Z" fill="#3F3D56"/>
<defs>
<linearGradient id="paint0_linear" x1="645.723" y1="162.658" x2="1396.45" y2="1026.85" gradientUnits="userSpaceOnUse">
<stop stop-color="#009CFF"/>
<stop offset="1" stop-color="#E6E6E6" stop-opacity="0"/>
</linearGradient>
</defs>
</svg>
